# xmcd CD database file
#
# Track frame offsets:
#	182
#	12545
#	26175
#	44487
#	62355
#	77097
#	95170
#	106925
#	123380
#	140630
#	155492
#	171692
#
# Disc length: 2443 seconds
#
# Revision: 1
# Processed by: cddbd v1.4PL0 Copyright (c) Steve Scherf et al.
# Submitted via: CDex 1.40Release
#
DISCID=aa09890c
DTITLE=Aznavour - Sus Canciones
DYEAR=1995
DGENRE=Blues
TTITLE0=Venecia sin ti
TTITLE1=Muy poco antes de la guerra
TTITLE2=Los dias felices
TTITLE3=Ser
TTITLE4=El amor gloton
TTITLE5=Morir de amor
TTITLE6=De quererte asi
TTITLE7=La juventud
TTITLE8=Pero fue ayer
TTITLE9=Camarada
TTITLE10=Y yo en mi rincon
TTITLE11=Vivi
EXTD=From: The Saint YEAR: 1995 ID3G: 0
EXTT0=
EXTT1=
EXTT2=
EXTT3=
EXTT4=
EXTT5=
EXTT6=
EXTT7=
EXTT8=
EXTT9=
EXTT10=
EXTT11=
PLAYORDER=
